<svg width="61" height="45" viewBox="0 0 61 45" fill="none" xmlns="http://www.w3.org/2000/svg">
<path d="M1.92 45C1.57867 45 1.25867 44.872 0.96 44.616C0.704 44.3173 0.576 43.9973 0.576 43.656C0.576 43.4427 0.597333 43.2507 0.64 43.08L15.68 1.992C15.808 1.52266 16.064 1.11733 16.448 0.775997C16.8747 0.391997 17.4507 0.199997 18.176 0.199997H27.648C28.3733 0.199997 28.928 0.391997 29.312 0.775997C29.7387 1.11733 30.016 1.52266 30.144 1.992L45.12 43.08C45.2053 43.2507 45.248 43.4427 45.248 43.656C45.248 43.9973 45.0987 44.3173 44.8 44.616C44.544 44.872 44.224 45 43.84 45H35.968C35.328 45 34.8373 44.8507 34.496 44.552C34.1973 44.2107 34.0053 43.912 33.92 43.656L31.424 37.128H14.336L11.904 43.656C11.8187 43.912 11.6267 44.2107 11.328 44.552C11.0293 44.8507 10.5173 45 9.792 45H1.92ZM16.96 27.912H28.864L22.848 11.016L16.96 27.912ZM50.8685 45C50.3992 45 50.0152 44.8507 49.7165 44.552C49.4178 44.2533 49.2685 43.8693 49.2685 43.4V35.272C49.2685 34.8453 49.4178 34.4827 49.7165 34.184C50.0152 33.8427 50.3992 33.672 50.8685 33.672H58.9325C59.4018 33.672 59.7858 33.8427 60.0845 34.184C60.4258 34.4827 60.5965 34.8453 60.5965 35.272V43.4C60.5965 43.8693 60.4258 44.2533 60.0845 44.552C59.7858 44.8507 59.4018 45 58.9325 45H50.8685Z" fill="#B49087"/>
</svg>
